<svg xmlns="http://www.w3.org/2000/svg" viewBox="0 0 256 256" style="enable-background:new 0 0 256 256" xml:space="preserve"><style>.st2{fill:none;stroke:#6b1d1d;stroke-width:.5;stroke-miterlimit:10}.st3{fill:#3a312a}.st7{fill:#fce8cb}.st14{fill:#d7e057}</style><g id="Layer_1"><path class="st3" d="M128 25.323a1.5 1.5 0 0 1-1.5-1.5v-7.345a1.5 1.5 0 1 1 3 0v7.345a1.5 1.5 0 0 1-1.5 1.5zM158.756 35.533a1.5 1.5 0 0 1-1.201-2.397l4.393-5.888a1.5 1.5 0 0 1 2.405 1.793l-4.393 5.888a1.497 1.497 0 0 1-1.204.604zM177.302 62.108a1.5 1.5 0 0 1-.426-2.937l7.041-2.092a1.5 1.5 0 0 1 .853 2.875l-7.041 2.092a1.466 1.466 0 0 1-.427.062zM183.17 97.033c-.172 0-.347-.029-.518-.092l-6.895-2.534a1.502 1.502 0 0 1-.891-1.926 1.502 1.502 0 0 1 1.926-.891l6.894 2.534a1.502 1.502 0 0 1-.516 2.909zM97.245 35.533c-.457 0-.909-.208-1.203-.604l-4.393-5.888a1.5 1.5 0 1 1 2.404-1.793l4.393 5.888a1.5 1.5 0 0 1-1.201 2.397zM78.698 62.108c-.142 0-.285-.019-.428-.062l-7.041-2.092a1.499 1.499 0 0 1-1.011-1.864 1.497 1.497 0 0 1 1.865-1.011l7.041 2.092a1.499 1.499 0 0 1-.426 2.937zM72.83 97.033a1.5 1.5 0 0 1-.518-2.908l6.895-2.534a1.501 1.501 0 0 1 1.035 2.817l-6.895 2.534c-.17.062-.345.091-.517.091z"/><path class="st14" d="M162.391 74.084c0 8.731-3.243 16.673-8.606 22.743-5.052 5.717-8.274 12.764-9.605 20.248h-32.368c-1.331-7.484-4.532-14.531-9.604-20.269-5.343-6.05-8.607-14.012-8.607-22.722 0-18.086 14.49-33.387 32.535-34.343 19.832-1.04 36.255 14.739 36.255 34.343z"/><path class="st3" d="M144.18 118.575h-32.368a1.5 1.5 0 0 1-1.477-1.237c-1.321-7.43-4.52-14.187-9.251-19.538A35.802 35.802 0 0 1 92.1 74.084c0-18.771 15.232-34.849 33.955-35.841 9.97-.527 19.428 2.961 26.644 9.809 7.217 6.848 11.191 16.093 11.191 26.032a35.82 35.82 0 0 1-8.982 23.736c-4.734 5.357-7.934 12.107-9.252 19.518a1.499 1.499 0 0 1-1.476 1.237zm-31.129-3h29.89c1.54-7.468 4.886-14.271 9.72-19.741a32.82 32.82 0 0 0 8.23-21.75c0-9.107-3.643-17.58-10.257-23.856-6.613-6.275-15.297-9.459-24.42-8.988-17.156.908-31.114 15.642-31.114 32.844 0 8.003 2.923 15.72 8.231 21.729 4.832 5.465 8.177 12.276 9.72 19.762z"/><path d="M108.685 117.084h38.63a3.042 3.042 0 0 1 3.042 3.042v10.768a3.042 3.042 0 0 1-3.042 3.042h-38.63a3.042 3.042 0 0 1-3.042-3.042v-10.768a3.042 3.042 0 0 1 3.042-3.042z" style="fill:#87796f"/><path class="st3" d="M147.315 135.436h-38.63a4.547 4.547 0 0 1-4.542-4.542v-10.768a4.547 4.547 0 0 1 4.542-4.542h38.63a4.546 4.546 0 0 1 4.541 4.542v10.768a4.547 4.547 0 0 1-4.541 4.542zm-38.63-16.852c-.85 0-1.542.691-1.542 1.542v10.768c0 .85.692 1.542 1.542 1.542h38.63c.85 0 1.541-.691 1.541-1.542v-10.768c0-.851-.691-1.542-1.541-1.542h-38.63z"/><path class="st14" d="M47.911 26.155s3.408 12.659 13.222 13.246c0 0-13.1 4.525-13.321 14.202 0 0-2.579-13.572-12.925-14.059 0 .001 12.05-1.825 13.024-13.389z"/><path class="st3" d="M47.811 55.103a1.5 1.5 0 0 1-1.472-1.217c-.024-.125-2.495-12.418-11.523-12.843a1.5 1.5 0 0 1-.155-2.982c.441-.068 10.894-1.817 11.754-12.032a1.498 1.498 0 0 1 1.359-1.367 1.497 1.497 0 0 1 1.583 1.102c.032.116 3.259 11.626 11.863 12.141a1.499 1.499 0 0 1 .402 2.914c-.121.042-12.118 4.31-12.313 12.819a1.5 1.5 0 0 1-1.498 1.465zm-7.741-15.73c3.878 1.97 6.23 5.746 7.587 8.877 2.026-4.021 5.941-6.787 8.949-8.427-4.134-1.843-6.783-5.651-8.334-8.723-1.794 4.361-5.272 6.869-8.202 8.273z"/><path class="st14" d="M26.212 43.136s2.411 8.954 9.352 9.369c0 0-9.266 3.201-9.422 10.045 0 0-1.824-9.6-9.142-9.944 0 0 8.524-1.291 9.212-9.47z"/><path class="st3" d="M26.141 64.051a1.502 1.502 0 0 1-1.473-1.22c-.016-.082-1.704-8.442-7.739-8.727a1.5 1.5 0 0 1-.155-2.982c.295-.047 7.364-1.243 7.942-8.113a1.5 1.5 0 0 1 2.942-.266c.021.079 2.228 7.92 7.994 8.265a1.499 1.499 0 0 1 .4 2.915c-.081.028-8.282 2.953-8.413 8.662a1.5 1.5 0 0 1-1.498 1.466zm-4.519-11.529c2.107 1.333 3.523 3.395 4.447 5.28 1.376-2.232 3.515-3.872 5.365-4.973-2.287-1.269-3.884-3.35-4.941-5.224-1.174 2.288-3.015 3.876-4.871 4.917z"/><path class="st14" d="M26.212 16.478s2.411 8.954 9.352 9.37c0 0-9.266 3.201-9.422 10.045 0 0-1.824-9.6-9.142-9.944 0 0 8.524-1.292 9.212-9.471z"/><path class="st3" d="M26.141 37.394a1.5 1.5 0 0 1-1.472-1.22c-.016-.082-1.704-8.442-7.739-8.727a1.5 1.5 0 0 1-.155-2.982c.295-.047 7.364-1.243 7.942-8.113a1.5 1.5 0 0 1 2.942-.267c.021.079 2.228 7.92 7.994 8.265a1.499 1.499 0 0 1 .4 2.915c-.081.028-8.282 2.953-8.413 8.662a1.5 1.5 0 0 1-1.499 1.467zm-4.519-11.529c2.107 1.333 3.523 3.395 4.447 5.28 1.376-2.232 3.515-3.872 5.365-4.973-2.287-1.269-3.884-3.35-4.941-5.224-1.174 2.287-3.015 3.876-4.871 4.917z"/><path class="st7" d="M87.424 239.522v-18.268h7.839a9.181 9.181 0 0 0 9.181-9.181v-12.867l.511-.511h14.287c2.828 0 4.595-3.061 3.181-5.51l-15.296-26.494a3.562 3.562 0 0 1-.319-.736c-5.829-18.84-23.453-32.498-44.246-32.336-24.848.194-45.211 20.424-45.558 45.271-.232 16.63 8.378 31.264 21.428 39.509v21.122h48.992z"/><path class="st3" d="M87.424 241.021a1.5 1.5 0 0 1-1.5-1.5v-18.267a1.5 1.5 0 0 1 1.5-1.5h7.84c4.235 0 7.681-3.446 7.681-7.682v-12.867c0-.398.158-.779.439-1.061l.512-.512a1.5 1.5 0 0 1 1.06-.439h14.287a2.15 2.15 0 0 0 1.882-1.087 2.152 2.152 0 0 0 0-2.174l-15.296-26.494a5.05 5.05 0 0 1-.454-1.044C99.631 147.83 82 134.925 62.574 135.119c-23.966.188-43.735 19.833-44.069 43.792-.218 15.594 7.532 29.882 20.729 38.22.435.275.699.754.699 1.268v21.122a1.5 1.5 0 1 1-3 0v-20.304c-13.661-8.959-21.656-23.98-21.428-40.348.357-25.579 21.461-46.551 47.046-46.751l.361-.001c20.626 0 39.232 13.687 45.33 33.394.048.155.109.299.185.428l15.297 26.495a5.12 5.12 0 0 1 0 5.174 5.12 5.12 0 0 1-4.48 2.587h-13.298v11.878c0 5.89-4.792 10.682-10.681 10.682h-6.34v16.767a1.501 1.501 0 0 1-1.501 1.499z"/><circle class="st14" cx="62.358" cy="178.96" r="26.337"/><path class="st3" d="M62.358 206.797c-15.35 0-27.837-12.487-27.837-27.837s12.488-27.837 27.837-27.837 27.837 12.487 27.837 27.837-12.488 27.837-27.837 27.837zm0-52.674c-13.695 0-24.837 11.142-24.837 24.837s11.142 24.837 24.837 24.837 24.837-11.142 24.837-24.837-11.141-24.837-24.837-24.837z"/><path class="st7" d="M168.576 239.522v-18.268h-7.84a9.181 9.181 0 0 1-9.181-9.181v-12.867l-.511-.511h-14.287c-2.828 0-4.595-3.061-3.181-5.51l15.296-26.494c.134-.232.24-.479.319-.736 5.829-18.84 23.453-32.498 44.246-32.336 24.849.194 45.211 20.424 45.558 45.271.232 16.63-8.378 31.264-21.427 39.509v21.122h-48.992z"/><path class="st3" d="M217.568 241.021a1.5 1.5 0 0 1-1.5-1.5v-21.122a1.5 1.5 0 0 1 .699-1.268c13.196-8.34 20.945-22.627 20.728-38.221-.334-23.959-20.104-43.605-44.069-43.792l-.339-.001c-19.321 0-36.751 12.82-42.463 31.28a5.072 5.072 0 0 1-.453 1.043l-15.296 26.493a2.152 2.152 0 0 0 0 2.174 2.152 2.152 0 0 0 1.882 1.087h14.288c.398 0 .779.158 1.061.439l.508.508c.283.281.442.664.442 1.064v12.867c0 4.235 3.445 7.682 7.681 7.682h7.84a1.5 1.5 0 0 1 1.5 1.5v18.267a1.5 1.5 0 0 1-3 0v-16.767h-6.34c-5.89 0-10.681-4.792-10.681-10.682v-11.878h-13.299a5.12 5.12 0 0 1-4.48-2.587 5.118 5.118 0 0 1 0-5.174l15.296-26.494c.076-.131.138-.274.185-.427 6.098-19.708 24.706-33.396 45.33-33.396l.361.001c25.584.2 46.688 21.172 47.046 46.751.229 16.367-7.766 31.388-21.427 40.348v20.304a1.5 1.5 0 0 1-1.5 1.501z"/><circle cx="193.642" cy="178.96" r="26.337" style="fill:#8ac5dc"/><path class="st3" d="M193.642 206.797c-15.35 0-27.837-12.487-27.837-27.837s12.487-27.837 27.837-27.837 27.837 12.487 27.837 27.837-12.488 27.837-27.837 27.837zm0-52.674c-13.695 0-24.837 11.142-24.837 24.837s11.142 24.837 24.837 24.837 24.837-11.142 24.837-24.837c-.001-13.695-11.142-24.837-24.837-24.837z"/><path style="fill:#f16c7a" d="M121.29 173.935H68.25v11h99.349v7.5l20.151-13-20.151-13v7.5h-33.556z"/><path class="st3" d="M167.599 193.936a1.5 1.5 0 0 1-1.5-1.5v-6H68.25a1.5 1.5 0 0 1-1.5-1.5v-11a1.5 1.5 0 0 1 1.5-1.5h53.04a1.5 1.5 0 1 1 0 3H69.75v8h97.849a1.5 1.5 0 0 1 1.5 1.5v4.747l15.885-10.247-15.885-10.247v4.747a1.5 1.5 0 0 1-1.5 1.5h-33.556a1.5 1.5 0 0 1 0-3h32.056v-6a1.5 1.5 0 0 1 2.313-1.26l20.151 13a1.5 1.5 0 0 1 0 2.522l-20.151 13c-.247.157-.53.238-.813.238z"/><path d="M160.89 74.085c0 8.02-2.92 15.74-8.23 21.75-4.83 5.47-8.18 12.27-9.72 19.74h-15c1.54-7.47 4.89-14.27 9.72-19.74a32.814 32.814 0 0 0 8.23-21.75c0-9.11-3.64-17.58-10.26-23.86-4.3-4.08-9.47-6.86-15.08-8.17 1.84-.44 3.73-.72 5.66-.82 9.13-.47 17.81 2.72 24.42 8.99 6.62 6.28 10.26 14.75 10.26 23.86z" style="fill:#b9c239"/><path d="M148.86 120.125v10.77c0 .85-.69 1.54-1.54 1.54h-15c.85 0 1.54-.69 1.54-1.54v-10.77c0-.85-.69-1.54-1.54-1.54h15c.85 0 1.54.69 1.54 1.54z" style="fill:#695b51"/></g></svg>